
      <svg
        width="300"
        height="525"
        viewBox="0 0 300 525"
        fill="none"
        xmlns="http://www.w3.org/2000/svg"
        role="img"
        aria-labelledby="descId"
      >
        <title id="titleId"></title>
        <desc id="descId"></desc>
        <style>
          .header {
            font: 600 18px 'Segoe UI', Ubuntu, Sans-Serif;
            fill: #2f80ed;
            animation: fadeInAnimation 0.8s ease-in-out forwards;
          }
          @supports(-moz-appearance: auto) {
            /* Selector detects Firefox */
            .header { font-size: 15.5px; }
          }
          
    @keyframes slideInAnimation {
      from {
        width: 0;
      }
      to {
        width: calc(100%-100px);
      }
    }
    @keyframes growWidthAnimation {
      from {
        width: 0;
      }
      to {
        width: 100%;
      }
    }
    .stat {
      font: 600 14px 'Segoe UI', Ubuntu, "Helvetica Neue", Sans-Serif; fill: #434d58;
    }
    @supports(-moz-appearance: auto) {
      /* Selector detects Firefox */
      .stat { font-size:12px; }
    }
    .bold { font-weight: 700 }
    .lang-name {
      font: 400 11px "Segoe UI", Ubuntu, Sans-Serif;
      fill: #434d58;
    }
    .stagger {
      opacity: 0;
      animation: fadeInAnimation 0.3s ease-in-out forwards;
    }
    #rect-mask rect{
      animation: slideInAnimation 1s ease-in-out forwards;
    }
    .lang-progress{
      animation: growWidthAnimation 0.6s ease-in-out forwards;
    }
    

          
      /* Animations */
      @keyframes scaleInAnimation {
        from {
          transform: translate(-5px, 5px) scale(0);
        }
        to {
          transform: translate(-5px, 5px) scale(1);
        }
      }
      @keyframes fadeInAnimation {
        from {
          opacity: 0;
        }
        to {
          opacity: 1;
        }
      }
    
          
        </style>

        

        <rect
          data-testid="card-bg"
          x="0.5"
          y="0.5"
          rx="4.5"
          height="99%"
          stroke="#e4e2e2"
          width="299"
          fill="#fffefe"
          stroke-opacity="1"
        />

        
      <g
        data-testid="card-title"
        transform="translate(25, 35)"
      >
        <g transform="translate(0, 0)">
      <text
        x="0"
        y="0"
        class="header"
        data-testid="header"
      >Most Used Languages</text>
    </g>
      </g>
    

        <g
          data-testid="main-card-body"
          transform="translate(0, 55)"
        >
          
    <svg data-testid="lang-items">
      <g transform="translate(0, 0)">
        <svg data-testid="pie">
          
      <g class="stagger" style="animation-delay: 100ms">
        <path
          data-testid="lang-pie"
          size="69.28356593980963"
          d="M 150 100 L 240 100 A 90 90 0 1 1 118.36489216861904 15.743131125724247 Z"
          fill="#555555"
        />
      </g>
    
      <g class="stagger" style="animation-delay: 200ms">
        <path
          data-testid="lang-pie"
          size="19.567566788668262"
          d="M 150 100 L 118.36489216861904 15.743131125724247 A 90 90 0 0 1 218.8065669613581 41.98572293829608 Z"
          fill="#f34b7d"
        />
      </g>
    
      <g class="stagger" style="animation-delay: 300ms">
        <path
          data-testid="lang-pie"
          size="4.926589448477688"
          d="M 150 100 L 218.8065669613581 41.98572293829608 A 90 90 0 0 1 233.20902321026577 65.70337543731958 Z"
          fill="#3178c6"
        />
      </g>
    
      <g class="stagger" style="animation-delay: 400ms">
        <path
          data-testid="lang-pie"
          size="1.3027621964478935"
          d="M 150 100 L 233.20902321026577 65.70337543731958 A 90 90 0 0 1 235.73463381793582 72.6216771130068 Z"
          fill="#427819"
        />
      </g>
    
      <g class="stagger" style="animation-delay: 500ms">
        <path
          data-testid="lang-pie"
          size="1.0735834671682967"
          d="M 150 100 L 235.73463381793582 72.6216771130068 A 90 90 0 0 1 237.38506356811416 78.46280739751238 Z"
          fill="#89e051"
        />
      </g>
    
      <g class="stagger" style="animation-delay: 600ms">
        <path
          data-testid="lang-pie"
          size="0.9714060399959128"
          d="M 150 100 L 237.38506356811416 78.46280739751238 A 90 90 0 0 1 238.53605800877648 83.8331687623527 Z"
          fill="#4298b8"
        />
      </g>
    
      <g class="stagger" style="animation-delay: 700ms">
        <path
          data-testid="lang-pie"
          size="0.6379539363198835"
          d="M 150 100 L 238.53605800877648 83.8331687623527 A 90 90 0 0 1 239.11279646584876 87.39406861686868 Z"
          fill="#f1e05a"
        />
      </g>
    
      <g class="stagger" style="animation-delay: 800ms">
        <path
          data-testid="lang-pie"
          size="0.5370209778117787"
          d="M 150 100 L 239.11279646584876 87.39406861686868 A 90 90 0 0 1 239.48734166585314 90.40751952939863 Z"
          fill="#DA3434"
        />
      </g>
    
      <g class="stagger" style="animation-delay: 900ms">
        <path
          data-testid="lang-pie"
          size="0.47656600006811833"
          d="M 150 100 L 239.48734166585314 90.40751952939863 A 90 90 0 0 1 239.73441658790017 93.09098562534491 Z"
          fill="#663399"
        />
      </g>
    
      <g class="stagger" style="animation-delay: 1000ms">
        <path
          data-testid="lang-pie"
          size="0.2643513436331673"
          d="M 150 100 L 239.73441658790017 93.09098562534491 A 90 90 0 0 1 239.83679010843278 94.58233048134201 Z"
          fill="#384d54"
        />
      </g>
    
      <g class="stagger" style="animation-delay: 1100ms">
        <path
          data-testid="lang-pie"
          size="0.25007270316933417"
          d="M 150 100 L 239.83679010843278 94.58233048134201 A 90 90 0 0 1 239.91082251914287 95.99450453361999 Z"
          fill="#e34c26"
        />
      </g>
    
      <g class="stagger" style="animation-delay: 1200ms">
        <path
          data-testid="lang-pie"
          size="0.23703853136978012"
          d="M 150 100 L 239.91082251914287 95.99450453361999 A 90 90 0 0 1 239.9605046869791 97.33399241111151 Z"
          fill="#7e7eff"
        />
      </g>
    
      <g class="stagger" style="animation-delay: 1300ms">
        <path
          data-testid="lang-pie"
          size="0.2074332768300894"
          d="M 150 100 L 239.9605046869791 97.33399241111151 A 90 90 0 0 1 239.9876102066783 98.50667843686391 Z"
          fill="#384d54"
        />
      </g>
    
      <g class="stagger" style="animation-delay: 1400ms">
        <path
          data-testid="lang-pie"
          size="0.1656453290506145"
          d="M 150 100 L 239.9876102066783 98.50667843686391 A 90 90 0 0 1 239.9982783314104 99.44331572504288 Z"
          fill="#dea584"
        />
      </g>
    
      <g class="stagger" style="animation-delay: 1500ms">
        <path
          data-testid="lang-pie"
          size="0.04460437686179062"
          d="M 150 100 L 239.9982783314104 99.44331572504288 A 90 90 0 0 1 239.9994850367932 99.69554456477134 Z"
          fill="#5686a5"
        />
      </g>
    
      <g class="stagger" style="animation-delay: 1600ms">
        <path
          data-testid="lang-pie"
          size="0.034583129196806825"
          d="M 150 100 L 239.9994850367932 99.69554456477134 A 90 90 0 0 1 239.9999341239444 99.89110699898035 Z"
          fill="#3572A5"
        />
      </g>
    
      <g class="stagger" style="animation-delay: 1700ms">
        <path
          data-testid="lang-pie"
          size="0.019256515120949256"
          d="M 150 100 L 239.9999341239444 99.89110699898035 A 90 90 0 0 1 240 99.9999999999999 Z"
          fill="#5e5086"
        />
      </g>
    
        </svg>
      </g>
      <g transform="translate(0, 220)">
        <svg data-testid="lang-names" x="25">
          <g transform="translate(0, 0)"><g transform="translate(0, 0)">
    <g class="stagger" style="animation-delay: 450ms">
      <circle cx="5" cy="6" r="5" fill="#555555" />
      <text data-testid="lang-name" x="15" y="10" class='lang-name'>
        C 69.28%
      </text>
    </g>
  </g><g transform="translate(0, 25)">
    <g class="stagger" style="animation-delay: 600ms">
      <circle cx="5" cy="6" r="5" fill="#f34b7d" />
      <text data-testid="lang-name" x="15" y="10" class='lang-name'>
        C++ 19.57%
      </text>
    </g>
  </g><g transform="translate(0, 50)">
    <g class="stagger" style="animation-delay: 750ms">
      <circle cx="5" cy="6" r="5" fill="#3178c6" />
      <text data-testid="lang-name" x="15" y="10" class='lang-name'>
        TypeScript 4.93%
      </text>
    </g>
  </g><g transform="translate(0, 75)">
    <g class="stagger" style="animation-delay: 900ms">
      <circle cx="5" cy="6" r="5" fill="#427819" />
      <text data-testid="lang-name" x="15" y="10" class='lang-name'>
        Makefile 1.30%
      </text>
    </g>
  </g><g transform="translate(0, 100)">
    <g class="stagger" style="animation-delay: 1050ms">
      <circle cx="5" cy="6" r="5" fill="#89e051" />
      <text data-testid="lang-name" x="15" y="10" class='lang-name'>
        Shell 1.07%
      </text>
    </g>
  </g><g transform="translate(0, 125)">
    <g class="stagger" style="animation-delay: 1200ms">
      <circle cx="5" cy="6" r="5" fill="#4298b8" />
      <text data-testid="lang-name" x="15" y="10" class='lang-name'>
        Groovy 0.97%
      </text>
    </g>
  </g><g transform="translate(0, 150)">
    <g class="stagger" style="animation-delay: 1350ms">
      <circle cx="5" cy="6" r="5" fill="#f1e05a" />
      <text data-testid="lang-name" x="15" y="10" class='lang-name'>
        JavaScript 0.64%
      </text>
    </g>
  </g><g transform="translate(0, 175)">
    <g class="stagger" style="animation-delay: 1500ms">
      <circle cx="5" cy="6" r="5" fill="#DA3434" />
      <text data-testid="lang-name" x="15" y="10" class='lang-name'>
        CMake 0.54%
      </text>
    </g>
  </g><g transform="translate(0, 200)">
    <g class="stagger" style="animation-delay: 1650ms">
      <circle cx="5" cy="6" r="5" fill="#663399" />
      <text data-testid="lang-name" x="15" y="10" class='lang-name'>
        CSS 0.48%
      </text>
    </g>
  </g></g><g transform="translate(150, 0)"><g transform="translate(0, 0)">
    <g class="stagger" style="animation-delay: 450ms">
      <circle cx="5" cy="6" r="5" fill="#384d54" />
      <text data-testid="lang-name" x="15" y="10" class='lang-name'>
        Just 0.26%
      </text>
    </g>
  </g><g transform="translate(0, 25)">
    <g class="stagger" style="animation-delay: 600ms">
      <circle cx="5" cy="6" r="5" fill="#e34c26" />
      <text data-testid="lang-name" x="15" y="10" class='lang-name'>
        HTML 0.25%
      </text>
    </g>
  </g><g transform="translate(0, 50)">
    <g class="stagger" style="animation-delay: 750ms">
      <circle cx="5" cy="6" r="5" fill="#7e7eff" />
      <text data-testid="lang-name" x="15" y="10" class='lang-name'>
        Nix 0.24%
      </text>
    </g>
  </g><g transform="translate(0, 75)">
    <g class="stagger" style="animation-delay: 900ms">
      <circle cx="5" cy="6" r="5" fill="#384d54" />
      <text data-testid="lang-name" x="15" y="10" class='lang-name'>
        Dockerfile 0.21%
      </text>
    </g>
  </g><g transform="translate(0, 100)">
    <g class="stagger" style="animation-delay: 1050ms">
      <circle cx="5" cy="6" r="5" fill="#dea584" />
      <text data-testid="lang-name" x="15" y="10" class='lang-name'>
        Rust 0.17%
      </text>
    </g>
  </g><g transform="translate(0, 125)">
    <g class="stagger" style="animation-delay: 1200ms">
      <circle cx="5" cy="6" r="5" fill="#5686a5" />
      <text data-testid="lang-name" x="15" y="10" class='lang-name'>
        GLSL 0.04%
      </text>
    </g>
  </g><g transform="translate(0, 150)">
    <g class="stagger" style="animation-delay: 1350ms">
      <circle cx="5" cy="6" r="5" fill="#3572A5" />
      <text data-testid="lang-name" x="15" y="10" class='lang-name'>
        Python 0.03%
      </text>
    </g>
  </g><g transform="translate(0, 175)">
    <g class="stagger" style="animation-delay: 1500ms">
      <circle cx="5" cy="6" r="5" fill="#5e5086" />
      <text data-testid="lang-name" x="15" y="10" class='lang-name'>
        Haskell 0.02%
      </text>
    </g>
  </g></g>
        </svg>
      </g>
    </svg>
  
        </g>
      </svg>
    