
      <svg
        width="300"
        height="525"
        viewBox="0 0 300 525"
        fill="none"
        xmlns="http://www.w3.org/2000/svg"
        role="img"
        aria-labelledby="descId"
      >
        <title id="titleId"></title>
        <desc id="descId"></desc>
        <style>
          .header {
            font: 600 18px 'Segoe UI', Ubuntu, Sans-Serif;
            fill: #2f80ed;
            animation: fadeInAnimation 0.8s ease-in-out forwards;
          }
          @supports(-moz-appearance: auto) {
            /* Selector detects Firefox */
            .header { font-size: 15.5px; }
          }
          
    @keyframes slideInAnimation {
      from {
        width: 0;
      }
      to {
        width: calc(100%-100px);
      }
    }
    @keyframes growWidthAnimation {
      from {
        width: 0;
      }
      to {
        width: 100%;
      }
    }
    .stat {
      font: 600 14px 'Segoe UI', Ubuntu, "Helvetica Neue", Sans-Serif; fill: #434d58;
    }
    @supports(-moz-appearance: auto) {
      /* Selector detects Firefox */
      .stat { font-size:12px; }
    }
    .bold { font-weight: 700 }
    .lang-name {
      font: 400 11px "Segoe UI", Ubuntu, Sans-Serif;
      fill: #434d58;
    }
    .stagger {
      opacity: 0;
      animation: fadeInAnimation 0.3s ease-in-out forwards;
    }
    #rect-mask rect{
      animation: slideInAnimation 1s ease-in-out forwards;
    }
    .lang-progress{
      animation: growWidthAnimation 0.6s ease-in-out forwards;
    }
    

          
      /* Animations */
      @keyframes scaleInAnimation {
        from {
          transform: translate(-5px, 5px) scale(0);
        }
        to {
          transform: translate(-5px, 5px) scale(1);
        }
      }
      @keyframes fadeInAnimation {
        from {
          opacity: 0;
        }
        to {
          opacity: 1;
        }
      }
    
          
        </style>

        

        <rect
          data-testid="card-bg"
          x="0.5"
          y="0.5"
          rx="4.5"
          height="99%"
          stroke="#e4e2e2"
          width="299"
          fill="#fffefe"
          stroke-opacity="1"
        />

        
      <g
        data-testid="card-title"
        transform="translate(25, 35)"
      >
        <g transform="translate(0, 0)">
      <text
        x="0"
        y="0"
        class="header"
        data-testid="header"
      >Most Used Languages</text>
    </g>
      </g>
    

        <g
          data-testid="main-card-body"
          transform="translate(0, 55)"
        >
          
    <svg data-testid="lang-items">
      <g transform="translate(0, 0)">
        <svg data-testid="pie">
          
      <g class="stagger" style="animation-delay: 100ms">
        <path
          data-testid="lang-pie"
          size="69.79704709394242"
          d="M 150 100 L 240 100 A 90 90 0 1 1 121.09926069211119 14.766513227150853 Z"
          fill="#555555"
        />
      </g>
    
      <g class="stagger" style="animation-delay: 200ms">
        <path
          data-testid="lang-pie"
          size="18.97825438594176"
          d="M 150 100 L 121.09926069211119 14.766513227150853 A 90 90 0 0 1 218.52937113847298 41.658545686918075 Z"
          fill="#f34b7d"
        />
      </g>
    
      <g class="stagger" style="animation-delay: 300ms">
        <path
          data-testid="lang-pie"
          size="4.963101871036024"
          d="M 150 100 L 218.52937113847298 41.658545686918075 A 90 90 0 0 1 233.1240404307526 65.49791452003794 Z"
          fill="#3178c6"
        />
      </g>
    
      <g class="stagger" style="animation-delay: 400ms">
        <path
          data-testid="lang-pie"
          size="1.3124173553173688"
          d="M 150 100 L 233.1240404307526 65.49791452003794 A 90 90 0 0 1 235.68345658071598 72.46193056184666 Z"
          fill="#427819"
        />
      </g>
    
      <g class="stagger" style="animation-delay: 500ms">
        <path
          data-testid="lang-pie"
          size="1.0815401141783305"
          d="M 150 100 L 235.68345658071598 72.46193056184666 A 90 90 0 0 1 237.35560788911272 78.34364365079877 Z"
          fill="#89e051"
        />
      </g>
    
      <g class="stagger" style="animation-delay: 600ms">
        <path
          data-testid="lang-pie"
          size="0.9786054196436349"
          d="M 150 100 L 237.35560788911272 78.34364365079877 A 90 90 0 0 1 238.5212844834706 83.75247116031281 Z"
          fill="#4298b8"
        />
      </g>
    
      <g class="stagger" style="animation-delay: 700ms">
        <path
          data-testid="lang-pie"
          size="0.6426820030563686"
          d="M 150 100 L 238.5212844834706 83.75247116031281 A 90 90 0 0 1 239.10503369229284 87.3393139721673 Z"
          fill="#f1e05a"
        />
      </g>
    
      <g class="stagger" style="animation-delay: 800ms">
        <path
          data-testid="lang-pie"
          size="0.536382135815731"
          d="M 150 100 L 239.10503369229284 87.3393139721673 A 90 90 0 0 1 239.481043175104 90.34894242607713 Z"
          fill="#DA3434"
        />
      </g>
    
      <g class="stagger" style="animation-delay: 900ms">
        <path
          data-testid="lang-pie"
          size="0.4800979727143879"
          d="M 150 100 L 239.481043175104 90.34894242607713 A 90 90 0 0 1 239.73141874051453 93.0521592696409 Z"
          fill="#663399"
        />
      </g>
    
      <g class="stagger" style="animation-delay: 1000ms">
        <path
          data-testid="lang-pie"
          size="0.2641330655271708"
          d="M 150 100 L 239.73141874051453 93.0521592696409 A 90 90 0 0 1 239.8343626945353 94.54222762780596 Z"
          fill="#384d54"
        />
      </g>
    
      <g class="stagger" style="animation-delay: 1100ms">
        <path
          data-testid="lang-pie"
          size="0.2519260664958127"
          d="M 150 100 L 239.8343626945353 94.54222762780596 A 90 90 0 0 1 239.90949600149506 95.96483844720645 Z"
          fill="#e34c26"
        />
      </g>
    
      <g class="stagger" style="animation-delay: 1200ms">
        <path
          data-testid="lang-pie"
          size="0.23879529456478418"
          d="M 150 100 L 239.90949600149506 95.96483844720645 A 90 90 0 0 1 239.95991713815675 97.3142396800963 Z"
          fill="#7e7eff"
        />
      </g>
    
      <g class="stagger" style="animation-delay: 1300ms">
        <path
          data-testid="lang-pie"
          size="0.20897062666114163"
          d="M 150 100 L 239.95991713815675 97.3142396800963 A 90 90 0 0 1 239.98742588153115 98.49561201283115 Z"
          fill="#384d54"
        />
      </g>
    
      <g class="stagger" style="animation-delay: 1400ms">
        <path
          data-testid="lang-pie"
          size="0.16687297594759304"
          d="M 150 100 L 239.98742588153115 98.49561201283115 A 90 90 0 0 1 239.99825271732863 99.43919002518855 Z"
          fill="#dea584"
        />
      </g>
    
      <g class="stagger" style="animation-delay: 1500ms">
        <path
          data-testid="lang-pie"
          size="0.0449349531911075"
          d="M 150 100 L 239.99825271732863 99.43919002518855 A 90 90 0 0 1 239.99947737542345 99.6932881635143 Z"
          fill="#5686a5"
        />
      </g>
    
      <g class="stagger" style="animation-delay: 1600ms">
        <path
          data-testid="lang-pie"
          size="0.034839435073281584"
          d="M 150 100 L 239.99947737542345 99.6932881635143 A 90 90 0 0 1 239.99993314387194 99.89029996089717 Z"
          fill="#3572A5"
        />
      </g>
    
      <g class="stagger" style="animation-delay: 1700ms">
        <path
          data-testid="lang-pie"
          size="0.019399230893077248"
          d="M 150 100 L 239.99993314387194 99.89029996089717 A 90 90 0 0 1 240 99.99999999999997 Z"
          fill="#5e5086"
        />
      </g>
    
        </svg>
      </g>
      <g transform="translate(0, 220)">
        <svg data-testid="lang-names" x="25">
          <g transform="translate(0, 0)"><g transform="translate(0, 0)">
    <g class="stagger" style="animation-delay: 450ms">
      <circle cx="5" cy="6" r="5" fill="#555555" />
      <text data-testid="lang-name" x="15" y="10" class='lang-name'>
        C 69.80%
      </text>
    </g>
  </g><g transform="translate(0, 25)">
    <g class="stagger" style="animation-delay: 600ms">
      <circle cx="5" cy="6" r="5" fill="#f34b7d" />
      <text data-testid="lang-name" x="15" y="10" class='lang-name'>
        C++ 18.98%
      </text>
    </g>
  </g><g transform="translate(0, 50)">
    <g class="stagger" style="animation-delay: 750ms">
      <circle cx="5" cy="6" r="5" fill="#3178c6" />
      <text data-testid="lang-name" x="15" y="10" class='lang-name'>
        TypeScript 4.96%
      </text>
    </g>
  </g><g transform="translate(0, 75)">
    <g class="stagger" style="animation-delay: 900ms">
      <circle cx="5" cy="6" r="5" fill="#427819" />
      <text data-testid="lang-name" x="15" y="10" class='lang-name'>
        Makefile 1.31%
      </text>
    </g>
  </g><g transform="translate(0, 100)">
    <g class="stagger" style="animation-delay: 1050ms">
      <circle cx="5" cy="6" r="5" fill="#89e051" />
      <text data-testid="lang-name" x="15" y="10" class='lang-name'>
        Shell 1.08%
      </text>
    </g>
  </g><g transform="translate(0, 125)">
    <g class="stagger" style="animation-delay: 1200ms">
      <circle cx="5" cy="6" r="5" fill="#4298b8" />
      <text data-testid="lang-name" x="15" y="10" class='lang-name'>
        Groovy 0.98%
      </text>
    </g>
  </g><g transform="translate(0, 150)">
    <g class="stagger" style="animation-delay: 1350ms">
      <circle cx="5" cy="6" r="5" fill="#f1e05a" />
      <text data-testid="lang-name" x="15" y="10" class='lang-name'>
        JavaScript 0.64%
      </text>
    </g>
  </g><g transform="translate(0, 175)">
    <g class="stagger" style="animation-delay: 1500ms">
      <circle cx="5" cy="6" r="5" fill="#DA3434" />
      <text data-testid="lang-name" x="15" y="10" class='lang-name'>
        CMake 0.54%
      </text>
    </g>
  </g><g transform="translate(0, 200)">
    <g class="stagger" style="animation-delay: 1650ms">
      <circle cx="5" cy="6" r="5" fill="#663399" />
      <text data-testid="lang-name" x="15" y="10" class='lang-name'>
        CSS 0.48%
      </text>
    </g>
  </g></g><g transform="translate(150, 0)"><g transform="translate(0, 0)">
    <g class="stagger" style="animation-delay: 450ms">
      <circle cx="5" cy="6" r="5" fill="#384d54" />
      <text data-testid="lang-name" x="15" y="10" class='lang-name'>
        Just 0.26%
      </text>
    </g>
  </g><g transform="translate(0, 25)">
    <g class="stagger" style="animation-delay: 600ms">
      <circle cx="5" cy="6" r="5" fill="#e34c26" />
      <text data-testid="lang-name" x="15" y="10" class='lang-name'>
        HTML 0.25%
      </text>
    </g>
  </g><g transform="translate(0, 50)">
    <g class="stagger" style="animation-delay: 750ms">
      <circle cx="5" cy="6" r="5" fill="#7e7eff" />
      <text data-testid="lang-name" x="15" y="10" class='lang-name'>
        Nix 0.24%
      </text>
    </g>
  </g><g transform="translate(0, 75)">
    <g class="stagger" style="animation-delay: 900ms">
      <circle cx="5" cy="6" r="5" fill="#384d54" />
      <text data-testid="lang-name" x="15" y="10" class='lang-name'>
        Dockerfile 0.21%
      </text>
    </g>
  </g><g transform="translate(0, 100)">
    <g class="stagger" style="animation-delay: 1050ms">
      <circle cx="5" cy="6" r="5" fill="#dea584" />
      <text data-testid="lang-name" x="15" y="10" class='lang-name'>
        Rust 0.17%
      </text>
    </g>
  </g><g transform="translate(0, 125)">
    <g class="stagger" style="animation-delay: 1200ms">
      <circle cx="5" cy="6" r="5" fill="#5686a5" />
      <text data-testid="lang-name" x="15" y="10" class='lang-name'>
        GLSL 0.04%
      </text>
    </g>
  </g><g transform="translate(0, 150)">
    <g class="stagger" style="animation-delay: 1350ms">
      <circle cx="5" cy="6" r="5" fill="#3572A5" />
      <text data-testid="lang-name" x="15" y="10" class='lang-name'>
        Python 0.03%
      </text>
    </g>
  </g><g transform="translate(0, 175)">
    <g class="stagger" style="animation-delay: 1500ms">
      <circle cx="5" cy="6" r="5" fill="#5e5086" />
      <text data-testid="lang-name" x="15" y="10" class='lang-name'>
        Haskell 0.02%
      </text>
    </g>
  </g></g>
        </svg>
      </g>
    </svg>
  
        </g>
      </svg>
    