
      <svg
        width="300"
        height="525"
        viewBox="0 0 300 525"
        fill="none"
        xmlns="http://www.w3.org/2000/svg"
        role="img"
        aria-labelledby="descId"
      >
        <title id="titleId"></title>
        <desc id="descId"></desc>
        <style>
          .header {
            font: 600 18px 'Segoe UI', Ubuntu, Sans-Serif;
            fill: #2f80ed;
            animation: fadeInAnimation 0.8s ease-in-out forwards;
          }
          @supports(-moz-appearance: auto) {
            /* Selector detects Firefox */
            .header { font-size: 15.5px; }
          }
          
    @keyframes slideInAnimation {
      from {
        width: 0;
      }
      to {
        width: calc(100%-100px);
      }
    }
    @keyframes growWidthAnimation {
      from {
        width: 0;
      }
      to {
        width: 100%;
      }
    }
    .stat {
      font: 600 14px 'Segoe UI', Ubuntu, "Helvetica Neue", Sans-Serif; fill: #434d58;
    }
    @supports(-moz-appearance: auto) {
      /* Selector detects Firefox */
      .stat { font-size:12px; }
    }
    .bold { font-weight: 700 }
    .lang-name {
      font: 400 11px "Segoe UI", Ubuntu, Sans-Serif;
      fill: #434d58;
    }
    .stagger {
      opacity: 0;
      animation: fadeInAnimation 0.3s ease-in-out forwards;
    }
    #rect-mask rect{
      animation: slideInAnimation 1s ease-in-out forwards;
    }
    .lang-progress{
      animation: growWidthAnimation 0.6s ease-in-out forwards;
    }
    

          
      /* Animations */
      @keyframes scaleInAnimation {
        from {
          transform: translate(-5px, 5px) scale(0);
        }
        to {
          transform: translate(-5px, 5px) scale(1);
        }
      }
      @keyframes fadeInAnimation {
        from {
          opacity: 0;
        }
        to {
          opacity: 1;
        }
      }
    
          
        </style>

        

        <rect
          data-testid="card-bg"
          x="0.5"
          y="0.5"
          rx="4.5"
          height="99%"
          stroke="#e4e2e2"
          width="299"
          fill="#fffefe"
          stroke-opacity="1"
        />

        
      <g
        data-testid="card-title"
        transform="translate(25, 35)"
      >
        <g transform="translate(0, 0)">
      <text
        x="0"
        y="0"
        class="header"
        data-testid="header"
      >Most Used Languages</text>
    </g>
      </g>
    

        <g
          data-testid="main-card-body"
          transform="translate(0, 55)"
        >
          
    <svg data-testid="lang-items">
      <g transform="translate(0, 0)">
        <svg data-testid="pie">
          
      <g class="stagger" style="animation-delay: 100ms">
        <path
          data-testid="lang-pie"
          size="90.31695099996327"
          d="M 150 100 L 240 100 A 90 90 0 1 1 223.8505188250194 48.55973494162909 Z"
          fill="#555555"
        />
      </g>
    
      <g class="stagger" style="animation-delay: 200ms">
        <path
          data-testid="lang-pie"
          size="5.324549939260972"
          d="M 150 100 L 223.8505188250194 48.55973494162909 A 90 90 0 0 1 236.64625299565841 75.66017991413348 Z"
          fill="#f34b7d"
        />
      </g>
    
      <g class="stagger" style="animation-delay: 300ms">
        <path
          data-testid="lang-pie"
          size="2.5238625939151333"
          d="M 150 100 L 236.64625299565841 75.66017991413348 A 90 90 0 0 1 239.4027016271482 89.64833628023437 Z"
          fill="#3178c6"
        />
      </g>
    
      <g class="stagger" style="animation-delay: 400ms">
        <path
          data-testid="lang-pie"
          size="0.3544616504336294"
          d="M 150 100 L 239.4027016271482 89.64833628023437 A 90 90 0 0 1 239.61105766455933 91.64186957274399 Z"
          fill="#89e051"
        />
      </g>
    
      <g class="stagger" style="animation-delay: 500ms">
        <path
          data-testid="lang-pie"
          size="0.28999021993768054"
          d="M 150 100 L 239.61105766455933 91.64186957274399 A 90 90 0 0 1 239.7484649555738 93.27593589277001 Z"
          fill="#427819"
        />
      </g>
    
      <g class="stagger" style="animation-delay: 600ms">
        <path
          data-testid="lang-pie"
          size="0.26104951674128557"
          d="M 150 100 L 239.7484649555738 93.27593589277001 A 90 90 0 0 1 239.8466772441044 94.74884886965444 Z"
          fill="#4298b8"
        />
      </g>
    
      <g class="stagger" style="animation-delay: 700ms">
        <path
          data-testid="lang-pie"
          size="0.18068621396117018"
          d="M 150 100 L 239.8466772441044 94.74884886965444 A 90 90 0 0 1 239.9005015118375 95.76918117616663 Z"
          fill="#663399"
        />
      </g>
    
      <g class="stagger" style="animation-delay: 800ms">
        <path
          data-testid="lang-pie"
          size="0.15098736639892507"
          d="M 150 100 L 239.9005015118375 95.76918117616663 A 90 90 0 0 1 239.93659243182555 96.62222828602884 Z"
          fill="#f1e05a"
        />
      </g>
    
      <g class="stagger" style="animation-delay: 900ms">
        <path
          data-testid="lang-pie"
          size="0.142997691158812"
          d="M 150 100 L 239.93659243182555 96.62222828602884 A 90 90 0 0 1 239.96331053765454 97.43041693935865 Z"
          fill="#DA3434"
        />
      </g>
    
      <g class="stagger" style="animation-delay: 1000ms">
        <path
          data-testid="lang-pie"
          size="0.10790435483955625"
          d="M 150 100 L 239.96331053765454 97.43041693935865 A 90 90 0 0 1 239.97866411851533 98.04040732615174 Z"
          fill="#384d54"
        />
      </g>
    
      <g class="stagger" style="animation-delay: 1100ms">
        <path
          data-testid="lang-pie"
          size="0.10230575029173977"
          d="M 150 100 L 239.97866411851533 98.04040732615174 A 90 90 0 0 1 239.98940146008152 98.61883206803944 Z"
          fill="#7e7eff"
        />
      </g>
    
      <g class="stagger" style="animation-delay: 1200ms">
        <path
          data-testid="lang-pie"
          size="0.06091398385619051"
          d="M 150 100 L 239.98940146008152 98.61883206803944 A 90 90 0 0 1 239.99402853939108 98.9632612425176 Z"
          fill="#e34c26"
        />
      </g>
    
      <g class="stagger" style="animation-delay: 1300ms">
        <path
          data-testid="lang-pie"
          size="0.053215902602942886"
          d="M 150 100 L 239.99402853939108 98.9632612425176 A 90 90 0 0 1 239.9969919613145 99.26417535031027 Z"
          fill="#5686a5"
        />
      </g>
    
      <g class="stagger" style="animation-delay: 1400ms">
        <path
          data-testid="lang-pie"
          size="0.05285141011936108"
          d="M 150 100 L 239.9969919613145 99.26417535031027 A 90 90 0 0 1 239.99893923233452 99.56303655237329 Z"
          fill="#384d54"
        />
      </g>
    
      <g class="stagger" style="animation-delay: 1500ms">
        <path
          data-testid="lang-pie"
          size="0.03751356641023892"
          d="M 150 100 L 239.99893923233452 99.56303655237329 A 90 90 0 0 1 239.99971917262724 99.7751692898436 Z"
          fill="#dea584"
        />
      </g>
    
      <g class="stagger" style="animation-delay: 1600ms">
        <path
          data-testid="lang-pie"
          size="0.035472408502180836"
          d="M 150 100 L 239.99971917262724 99.7751692898436 A 90 90 0 0 1 239.99999673589556 99.97576080060968 Z"
          fill="#3572A5"
        />
      </g>
    
      <g class="stagger" style="animation-delay: 1700ms">
        <path
          data-testid="lang-pie"
          size="0.004286431606921975"
          d="M 150 100 L 239.99999673589556 99.97576080060968 A 90 90 0 0 1 240 100.00000000000014 Z"
          fill="#5e5086"
        />
      </g>
    
        </svg>
      </g>
      <g transform="translate(0, 220)">
        <svg data-testid="lang-names" x="25">
          <g transform="translate(0, 0)"><g transform="translate(0, 0)">
    <g class="stagger" style="animation-delay: 450ms">
      <circle cx="5" cy="6" r="5" fill="#555555" />
      <text data-testid="lang-name" x="15" y="10" class='lang-name'>
        C 90.32%
      </text>
    </g>
  </g><g transform="translate(0, 25)">
    <g class="stagger" style="animation-delay: 600ms">
      <circle cx="5" cy="6" r="5" fill="#f34b7d" />
      <text data-testid="lang-name" x="15" y="10" class='lang-name'>
        C++ 5.32%
      </text>
    </g>
  </g><g transform="translate(0, 50)">
    <g class="stagger" style="animation-delay: 750ms">
      <circle cx="5" cy="6" r="5" fill="#3178c6" />
      <text data-testid="lang-name" x="15" y="10" class='lang-name'>
        TypeScript 2.52%
      </text>
    </g>
  </g><g transform="translate(0, 75)">
    <g class="stagger" style="animation-delay: 900ms">
      <circle cx="5" cy="6" r="5" fill="#89e051" />
      <text data-testid="lang-name" x="15" y="10" class='lang-name'>
        Shell 0.35%
      </text>
    </g>
  </g><g transform="translate(0, 100)">
    <g class="stagger" style="animation-delay: 1050ms">
      <circle cx="5" cy="6" r="5" fill="#427819" />
      <text data-testid="lang-name" x="15" y="10" class='lang-name'>
        Makefile 0.29%
      </text>
    </g>
  </g><g transform="translate(0, 125)">
    <g class="stagger" style="animation-delay: 1200ms">
      <circle cx="5" cy="6" r="5" fill="#4298b8" />
      <text data-testid="lang-name" x="15" y="10" class='lang-name'>
        Groovy 0.26%
      </text>
    </g>
  </g><g transform="translate(0, 150)">
    <g class="stagger" style="animation-delay: 1350ms">
      <circle cx="5" cy="6" r="5" fill="#663399" />
      <text data-testid="lang-name" x="15" y="10" class='lang-name'>
        CSS 0.18%
      </text>
    </g>
  </g><g transform="translate(0, 175)">
    <g class="stagger" style="animation-delay: 1500ms">
      <circle cx="5" cy="6" r="5" fill="#f1e05a" />
      <text data-testid="lang-name" x="15" y="10" class='lang-name'>
        JavaScript 0.15%
      </text>
    </g>
  </g><g transform="translate(0, 200)">
    <g class="stagger" style="animation-delay: 1650ms">
      <circle cx="5" cy="6" r="5" fill="#DA3434" />
      <text data-testid="lang-name" x="15" y="10" class='lang-name'>
        CMake 0.14%
      </text>
    </g>
  </g></g><g transform="translate(150, 0)"><g transform="translate(0, 0)">
    <g class="stagger" style="animation-delay: 450ms">
      <circle cx="5" cy="6" r="5" fill="#384d54" />
      <text data-testid="lang-name" x="15" y="10" class='lang-name'>
        Just 0.11%
      </text>
    </g>
  </g><g transform="translate(0, 25)">
    <g class="stagger" style="animation-delay: 600ms">
      <circle cx="5" cy="6" r="5" fill="#7e7eff" />
      <text data-testid="lang-name" x="15" y="10" class='lang-name'>
        Nix 0.10%
      </text>
    </g>
  </g><g transform="translate(0, 50)">
    <g class="stagger" style="animation-delay: 750ms">
      <circle cx="5" cy="6" r="5" fill="#e34c26" />
      <text data-testid="lang-name" x="15" y="10" class='lang-name'>
        HTML 0.06%
      </text>
    </g>
  </g><g transform="translate(0, 75)">
    <g class="stagger" style="animation-delay: 900ms">
      <circle cx="5" cy="6" r="5" fill="#5686a5" />
      <text data-testid="lang-name" x="15" y="10" class='lang-name'>
        GLSL 0.05%
      </text>
    </g>
  </g><g transform="translate(0, 100)">
    <g class="stagger" style="animation-delay: 1050ms">
      <circle cx="5" cy="6" r="5" fill="#384d54" />
      <text data-testid="lang-name" x="15" y="10" class='lang-name'>
        Dockerfile 0.05%
      </text>
    </g>
  </g><g transform="translate(0, 125)">
    <g class="stagger" style="animation-delay: 1200ms">
      <circle cx="5" cy="6" r="5" fill="#dea584" />
      <text data-testid="lang-name" x="15" y="10" class='lang-name'>
        Rust 0.04%
      </text>
    </g>
  </g><g transform="translate(0, 150)">
    <g class="stagger" style="animation-delay: 1350ms">
      <circle cx="5" cy="6" r="5" fill="#3572A5" />
      <text data-testid="lang-name" x="15" y="10" class='lang-name'>
        Python 0.04%
      </text>
    </g>
  </g><g transform="translate(0, 175)">
    <g class="stagger" style="animation-delay: 1500ms">
      <circle cx="5" cy="6" r="5" fill="#5e5086" />
      <text data-testid="lang-name" x="15" y="10" class='lang-name'>
        Haskell 0.00%
      </text>
    </g>
  </g></g>
        </svg>
      </g>
    </svg>
  
        </g>
      </svg>
    